# xmcd
#
# Track frame offsets: 
#        150
#        5425
#        50417
#        78761
#        111370
#        155176
#        208799
#        262957
#        275395
#        293159
#
# Disc length: 4107 seconds
#
# Revision: 1
# Processed by: cddbd v1.5.2PL0 Copyright (c) Steve Scherf et al.
# Submitted via: ExactAudioCopy v1.0b1
#
DISCID=8910090a
DTITLE=Jimi Hendrix - Konserthuset, Stockholm 1969-01-09  Late Show
DYEAR=1969
DGENRE=Rock
TTITLE0=Intro
TTITLE1=I Don't Live Today
TTITLE2=Spanish Castle Magic
TTITLE3=Hey Joe
TTITLE4=Voodoo Chile (Slight Return)
TTITLE5=Sunshine Of Your Love
TTITLE6=Red House
TTITLE7=Fire
TTITLE8=Purple Haze
TTITLE9=Star Spangled Banner
EXTD=
EXTT0=
EXTT1=
EXTT2=
EXTT3=
EXTT4=
EXTT5=
EXTT6=
EXTT7=
EXTT8=
EXTT9=
PLAYORDER=
